<svg id="Layer_1" data-name="Layer 1" xmlns="http://www.w3.org/2000/svg" viewBox="0 0 566.93 566.93"><defs><style>.cls-1{fill:#fafcfd;}.cls-1,.cls-2{stroke:#1e2756;stroke-linecap:round;stroke-linejoin:round;stroke-width:17.01px;}.cls-2{fill:none;}</style></defs><title>icons bootstrap</title><circle class="cls-1" cx="246.22" cy="401.31" r="17.3"/><path class="cls-1" d="M393.3,392.4a14.77,14.77,0,1,1-14.77-14.77A14.77,14.77,0,0,1,393.3,392.4Z"/><polygon class="cls-1" points="382.93 302.13 242.8 302.13 221.41 211.76 404.92 211.76 382.93 302.13"/><path class="cls-2" d="M247.89,398.88l21.24-21.25H386.8a18.12,18.12,0,0,0,18.12-18.12h0a18.12,18.12,0,0,0-18.12-18.12H252.09L206.4,148.32H162"/><line class="cls-2" x1="228.92" y1="240.76" x2="346.15" y2="240.76"/><line class="cls-2" x1="235.44" y1="271.04" x2="313.17" y2="271.04"/></svg>