<svg id="Layer_1" data-name="Layer 1" xmlns="http://www.w3.org/2000/svg" viewBox="0 0 566.93 566.93"><defs><style>.cls-1,.cls-3{fill:#fafcfd;}.cls-1,.cls-2,.cls-3{stroke:#1e2756;stroke-linecap:round;stroke-linejoin:round;}.cls-1,.cls-2{stroke-width:17.01px;}.cls-2{fill:none;}.cls-3{stroke-width:8.5px;}</style></defs><title>icons bootstrap</title><path class="cls-1" d="M261,344.64v14.91a24.5,24.5,0,0,0,24.5,24.5H445.64"/><path class="cls-1" d="M307.16,344.64V162.76H467.6V362.09a22,22,0,0,1-22,22h0a22,22,0,0,1-21.95-22V344.64H261"/><line class="cls-2" x1="336.72" y1="204.26" x2="423.69" y2="204.26"/><line class="cls-2" x1="336.72" y1="290.81" x2="423.69" y2="290.81"/><line class="cls-2" x1="336.72" y1="261.96" x2="423.69" y2="261.96"/><line class="cls-2" x1="336.72" y1="233.11" x2="395.82" y2="233.11"/><path class="cls-3" d="M241.92,287a10.76,10.76,0,1,1-10.76-10.75A10.75,10.75,0,0,1,241.92,287Z"/><line class="cls-2" x1="150.79" y1="181.65" x2="274.14" y2="181.65"/><line class="cls-2" x1="193.1" y1="143.86" x2="269.23" y2="143.86"/></svg>