<svg id="Layer_1" data-name="Layer 1" xmlns="http://www.w3.org/2000/svg" viewBox="0 0 566.93 566.93"><defs><style>.cls-1{fill:#fafcfd;stroke:#1e2756;stroke-miterlimit:10;stroke-width:17.01px;}.cls-2{fill:#1e2756;}</style></defs><title>icons bootstrap</title><path class="cls-1" d="M432.72,304.85a103.81,103.81,0,1,0-41.29,37.42,51.75,51.75,0,0,0,68.45-4.16c1-1,2-2.12,2.9-3.21Z"/><path class="cls-1" d="M221.75,213.66A103.39,103.39,0,0,0,134.21,372.3l-30.06,30.06c.93,1.09,1.87,2.17,2.9,3.2a51.74,51.74,0,0,0,68.45,4.17,103.5,103.5,0,1,0,46.25-196.07Z"/><path class="cls-2" d="M187.86,321.23a12,12,0,1,1-12-12A12,12,0,0,1,187.86,321.23Z"/><path class="cls-2" d="M233.78,321.23a12,12,0,1,1-12-12A12,12,0,0,1,233.78,321.23Z"/><path class="cls-2" d="M279.69,321.23a12,12,0,1,1-12-12A12,12,0,0,1,279.69,321.23Z"/><path class="cls-2" d="M315.2,249.74a9.53,9.53,0,1,1-9.53-9.54A9.53,9.53,0,0,1,315.2,249.74Z"/><path class="cls-2" d="M351.59,249.74a9.54,9.54,0,1,1-9.54-9.54A9.54,9.54,0,0,1,351.59,249.74Z"/><path class="cls-2" d="M388,249.74a9.53,9.53,0,1,1-9.53-9.54A9.53,9.53,0,0,1,388,249.74Z"/></svg>