<svg id="Layer_1" data-name="Layer 1" xmlns="http://www.w3.org/2000/svg" viewBox="0 0 566.93 566.93"><defs><style>.cls-1{fill:#fafcfd;}.cls-1,.cls-2{stroke:#1e2756;stroke-linecap:round;stroke-linejoin:round;stroke-width:17.01px;}.cls-2{fill:none;}</style></defs><title>icons bootstrap</title><rect class="cls-1" x="149.68" y="251.23" width="30.72" height="90.53" rx="15.36"/><path class="cls-1" d="M401.89,341.77h0a15.41,15.41,0,0,1-15.36-15.36V266.59a15.4,15.4,0,0,1,15.36-15.36h0a15.41,15.41,0,0,1,15.36,15.36v59.82A15.42,15.42,0,0,1,401.89,341.77Z"/><path class="cls-2" d="M165,251.23a118.43,118.43,0,0,1,236.85,0"/><path class="cls-2" d="M392.19,341.77l-14.68,39.16a68.65,68.65,0,0,1-83.94,41.67h0"/><path class="cls-1" d="M301.45,416.13a18,18,0,1,1-18-18A18,18,0,0,1,301.45,416.13Z"/><line class="cls-2" x1="297.61" y1="346.62" x2="254.63" y2="346.62"/></svg>