<svg id="Layer_1" data-name="Layer 1" xmlns="http://www.w3.org/2000/svg" viewBox="0 0 566.93 566.93"><defs><style>.cls-1,.cls-3,.cls-4{fill:#fafcfd;}.cls-1,.cls-2,.cls-3,.cls-4{stroke:#1e2756;}.cls-1,.cls-2{stroke-miterlimit:10;}.cls-1,.cls-2,.cls-3{stroke-width:17.01px;}.cls-2{fill:none;}.cls-3,.cls-4{stroke-linecap:round;stroke-linejoin:round;}.cls-4{stroke-width:8.5px;}</style></defs><title>icons bootstrap</title><path class="cls-1" d="M321.24,394.19,370.62,304a84.21,84.21,0,0,0,8.8-56.52h0a84.27,84.27,0,0,0-82.72-68.21H284.21a84.27,84.27,0,0,0-82.73,68.21h0a84.27,84.27,0,0,0,8.8,56.52l49.38,90.22Z"/><line class="cls-2" x1="290.45" y1="415.63" x2="290.45" y2="415.57"/><path class="cls-2" d="M278.57,415.63V291.4a15.2,15.2,0,0,0-15.21-15.2h0a15.2,15.2,0,0,0-15.2,15.2v2.37a15.21,15.21,0,0,0,15.2,15.2h41.19"/><path class="cls-2" d="M302.34,415.63V291.4a15.2,15.2,0,0,1,15.2-15.2h0a15.19,15.19,0,0,1,15.2,15.2v2.37a15.2,15.2,0,0,1-15.2,15.2H276.36"/><path class="cls-3" d="M310,421.76H270.88a15,15,0,0,1-15-15h0a15,15,0,0,1,15-15H310a15,15,0,0,1,15,15h0A15,15,0,0,1,310,421.76Z"/><path class="cls-3" d="M310,391.75H270.88a15,15,0,0,0-15,15h0a15,15,0,0,0,15,15H310a15,15,0,0,0,15-15h0A15,15,0,0,0,310,391.75Z"/><path class="cls-3" d="M310,421.76H270.88a15,15,0,0,0-15,15h0a15,15,0,0,0,15,15H310a15,15,0,0,0,15-15h0A15,15,0,0,0,310,421.76Z"/><path class="cls-4" d="M186,170.23a9,9,0,1,1-9-9A9,9,0,0,1,186,170.23Z"/><path class="cls-4" d="M399,436.76a9,9,0,1,1-9-9A9,9,0,0,1,399,436.76Z"/><path class="cls-4" d="M245.77,133.18a9,9,0,1,1-9-9A9,9,0,0,1,245.77,133.18Z"/></svg>